# xmcd
# 
# Track frame offsets:
#     150
#     17631
#     32222
#     52696
#     74618
#     111784
#     135335
#     150157
#     171863
#     197102
# 
# Disc length: 2978
# 
# Revision: 0
# Processed by: cddbd v1.5.2PL0 Copyright (c) Steve Scherf et al.
# Submitted via: fre:ac v1.0.31
# 
DISCID=790ba00a
DTITLE=Tom Waits - Blue Valentine [2018 Reissue]
DYEAR=1978
DGENRE=Rock/Pop
TTITLE0=Somewhere (From "West Side Story")
TTITLE1=Red Shoes By The Drugstore
TTITLE2=Christmas Card From A Hooker In Minneapolis
TTITLE3=Romeo Is Bleeding
TTITLE4=$29.00
TTITLE5=Wrong Side Of The Road
TTITLE6=Whistlin' Past The Graveyard
TTITLE7=Kentucky Avenue
TTITLE8=A Sweet Little Bullet From A Pretty Blue Gun
TTITLE9=Blue Valentines
EXTD=
EXTT0=
EXTT1=
EXTT2=
EXTT3=
EXTT4=
EXTT5=
EXTT6=
EXTT7=
EXTT8=
EXTT9=
PLAYORDER=
